<svg width="36" height="36" viewBox="0 0 36 36" fill="none" xmlns="http://www.w3.org/2000/svg">
<path d="M8 8.60863C8 8.18965 8.44772 7.85001 9 7.85001H27C27.5523 7.85001 28 8.18965 28 8.60863V9.09138C28 9.51036 27.5523 9.85001 27 9.85001H9C8.44772 9.85001 8 9.51036 8 9.09139V8.60863Z" fill="#F3F3F3"/>
<path d="M8 16.5177C8 16.0987 8.44772 15.7591 9 15.7591H23.3636C23.9159 15.7591 24.3636 16.0987 24.3636 16.5177V17.0005C24.3636 17.4194 23.9159 17.7591 23.3636 17.7591H9C8.44772 17.7591 8 17.4194 8 17.0005V16.5177Z" fill="#F3F3F3"/>
<path d="M8 24.4268C8 24.0078 8.44772 23.6682 9 23.6682H15.1818C15.7341 23.6682 16.1818 24.0078 16.1818 24.4268V24.9096C16.1818 25.3285 15.7341 25.6682 15.1818 25.6682H9C8.44771 25.6682 8 25.3285 8 24.9096V24.4268Z" fill="#F3F3F3"/>
</svg>
