<svg width="15" height="9" viewBox="0 0 15 9" fill="none" xmlns="http://www.w3.org/2000/svg">
<path fill-rule="evenodd" clip-rule="evenodd" d="M2.11538 1.34375H11.6346C12.2188 1.34375 12.6923 1.83344 12.6923 2.4375V6.8125C12.6923 7.41656 12.2188 7.90625 11.6346 7.90625H2.11538C1.53124 7.90625 1.05769 7.41656 1.05769 6.8125V2.4375C1.05769 1.83344 1.53124 1.34375 2.11538 1.34375ZM0 2.4375C0 1.22938 0.94709 0.25 2.11538 0.25H11.6346C12.8029 0.25 13.75 1.22938 13.75 2.4375V3.16668C14.4404 3.16668 15 3.8196 15 4.62501C15 5.43043 14.4404 6.08335 13.75 6.08335V6.8125C13.75 8.02062 12.8029 9 11.6346 9H2.11538C0.94709 9 0 8.02062 0 6.8125V2.4375Z" fill="#EEF511"/>
</svg>
