<svg width="13" height="16" viewBox="0 0 13 16" fill="none" xmlns="http://www.w3.org/2000/svg">
<path d="M6.5 15.5L1.90378 11.1066C0.994747 10.2376 0.37569 9.13055 0.124893 7.92531C-0.125905 6.72007 0.00282161 5.47081 0.494793 4.3355C0.986765 3.20019 1.81989 2.22982 2.8888 1.54711C3.95772 0.864396 5.21443 0.5 6.5 0.5C7.78557 0.5 9.04228 0.864396 10.1112 1.54711C11.1801 2.22982 12.0132 3.20019 12.5052 4.3355C12.9972 5.47081 13.1259 6.72007 12.8751 7.92531C12.6243 9.13055 12.0053 10.2376 11.0962 11.1066L6.5 15.5ZM10.075 10.1304C10.782 9.45455 11.2634 8.59349 11.4585 7.65609C11.6535 6.71869 11.5533 5.74706 11.1707 4.86407C10.788 3.98108 10.14 3.22637 9.30866 2.69539C8.47729 2.16441 7.49987 1.88101 6.5 1.88101C5.50013 1.88101 4.52271 2.16441 3.69134 2.69539C2.85997 3.22637 2.21199 3.98108 1.82933 4.86407C1.44667 5.74706 1.34652 6.71869 1.54155 7.65609C1.73658 8.59349 2.21802 9.45455 2.925 10.1304L6.5 13.5477L10.075 10.1304ZM6.5 8.09386C6.11691 8.09386 5.74951 7.94839 5.47862 7.68946C5.20774 7.43053 5.05556 7.07934 5.05556 6.71315C5.05556 6.34696 5.20774 5.99577 5.47862 5.73684C5.74951 5.4779 6.11691 5.33244 6.5 5.33244C6.88309 5.33244 7.25049 5.4779 7.52138 5.73684C7.79226 5.99577 7.94444 6.34696 7.94444 6.71315C7.94444 7.07934 7.79226 7.43053 7.52138 7.68946C7.25049 7.94839 6.88309 8.09386 6.5 8.09386Z" fill="#EEF511"/>
</svg>
