<svg width="14" height="14" viewBox="0 0 14 14" fill="none" xmlns="http://www.w3.org/2000/svg">
<path fill-rule="evenodd" clip-rule="evenodd" d="M6.875 13.75C10.672 13.75 13.75 10.672 13.75 6.875C13.75 3.07804 10.672 0 6.875 0C3.07804 0 0 3.07804 0 6.875C0 10.672 3.07804 13.75 6.875 13.75ZM6.875 12.5432C3.74454 12.5432 1.2068 10.0055 1.2068 6.875C1.2068 3.74454 3.74454 1.2068 6.875 1.2068C10.0055 1.2068 12.5432 3.74454 12.5432 6.875C12.5432 10.0055 10.0055 12.5432 6.875 12.5432ZM5.72925 4.58333C5.72925 4.26691 5.98575 4.01041 6.30216 4.01041C6.61858 4.01041 6.87508 4.26691 6.87508 4.58333V7.44791H8.5938C8.91021 7.44791 9.16672 7.70442 9.16672 8.02083C9.16672 8.33724 8.91021 8.59375 8.5938 8.59375H6.30213C5.98572 8.59375 5.72922 8.33724 5.72922 8.02083L5.72925 8.01486V4.58333Z" fill="#EEF511"/>
</svg>
