<svg width="45" height="45" viewBox="0 0 45 45" fill="none" xmlns="http://www.w3.org/2000/svg">
<rect x="0.75" y="0.75" width="43.5" height="43.5" rx="4.25" fill="#3B3D10"/>
<path d="M30.2485 15.028L13.0737 19.4576C12.3863 19.6349 12.2916 20.4913 12.9261 20.7911L18.9887 23.752C19.1441 23.8279 19.3278 23.8181 19.4742 23.726L21.3382 22.5541C21.7335 22.2457 22.3251 22.2912 22.6595 22.6557C22.9939 23.0203 22.9445 23.5657 22.5492 23.8741L21.2874 25.2698C21.1322 25.4414 21.1151 25.6971 21.246 25.8879L24.6667 30.8742C24.9946 31.4251 25.8816 31.3557 26.1025 30.7617L31.2068 15.9535C31.411 15.4043 30.8585 14.8706 30.2485 15.028Z" fill="#EEF511"/>
<rect x="0.75" y="0.75" width="43.5" height="43.5" rx="4.25" stroke="#EEF511" stroke-width="1.5"/>
</svg>
