<svg width="234" height="153" viewBox="0 0 234 153" fill="none" xmlns="http://www.w3.org/2000/svg">
<path opacity="0.4" d="M265.687 115.764C265.972 132.14 260.046 145.16 247.503 154.859C234.959 164.558 219.624 169.406 200.411 169.74C170.566 170.258 145.295 158.631 129.506 138.85L152.287 111.048C167.308 125.835 183.56 132.905 200.367 132.613C212.72 132.399 221.904 127.552 221.747 118.525C221.625 111.523 216.769 108.917 203.968 103.812L185.666 96.7522C170.889 91.2026 159.659 85.2716 151.879 78.0302L85.8767 79.1762C81.6896 79.2489 77.5297 78.5169 73.6345 77.0211C69.7393 75.5266 66.1854 73.2982 63.1759 70.4644C60.1663 67.6305 57.7601 64.246 56.0947 60.503C54.4296 56.7614 53.5377 52.7355 53.4706 48.6572L138.576 47.1796C138.389 40.8888 139.45 34.6216 141.7 28.7208L32.3803 30.6188C23.9185 30.7447 15.7549 27.5922 9.68318 21.8544C3.6115 16.1168 0.128655 8.26301 4.70457e-05 0.0194084L200.138 -3.45545C225.527 -3.89628 245.923 4.11274 261.649 20.2194L238.681 48.3712C227.187 38.2096 214.386 33.0786 200.339 33.3225C188.996 33.5194 182.206 37.6324 182.339 45.3271C182.449 51.6648 186.957 54.6223 200.442 59.7412L216.955 66.1126C250.305 78.5842 265.264 91.3752 265.687 115.764Z" fill="#191A1A"/>
</svg>
