<svg width="441" height="103" viewBox="0 0 441 103" fill="none" xmlns="http://www.w3.org/2000/svg">
<g clip-path="url(#clip0_1_26)">
<path d="M96.45 58.58C96.45 64.73 94.2 69.58 89.55 73.14C84.9 76.7 79.26 78.42 72.23 78.42C61.31 78.42 52.14 73.89 46.49 66.36L55 56.07C60.4 61.72 66.3 64.48 72.45 64.48C76.97 64.48 80.36 62.72 80.36 59.33C80.36 56.7 78.6 55.69 73.95 53.69L67.3 50.92C61.93 48.74 57.86 46.44 55.06 43.67H30.91C29.3779 43.67 27.8609 43.3681 26.4456 42.7815C25.0303 42.1949 23.7444 41.3351 22.6616 40.2513C21.5787 39.1676 20.7201 37.881 20.1347 36.4652C19.5493 35.0494 19.2487 33.5321 19.25 32H50.39C50.3616 29.6371 50.7895 27.2909 51.65 25.09H11.65C8.55399 25.0821 5.58781 23.8452 3.4033 21.6514C1.21878 19.4575 -0.00532488 16.486 -1.33038e-05 13.39H73.23C82.52 13.39 89.93 16.53 95.58 22.68L87 33.1C82.86 29.21 78.21 27.2 73.07 27.2C68.92 27.2 66.41 28.7 66.41 31.59C66.41 33.97 68.04 35.11 72.94 37.12L78.94 39.62C91.06 44.52 96.45 49.42 96.45 58.58Z" fill="#191A1A"/>
<path d="M136.31 14.35C148.52 14.35 157.96 20.13 163.37 29.7L151.54 38.88C147.64 33.22 143.11 29.82 136.54 29.82C126.97 29.82 120.18 37.12 120.18 46.82C120.18 56.76 126.97 63.94 136.54 63.94C142.95 63.94 147.48 60.67 151.54 55L163.37 64.06C157.96 73.63 148.37 79.54 136.31 79.54C118.07 79.92 102.72 64.82 102.97 46.82C103 28.57 117.82 14.35 136.31 14.35Z" fill="#191A1A"/>
<path d="M204.52 14.35C222.77 14.09 238.37 29.07 237.99 46.81C238.37 64.56 222.64 79.81 204.39 79.41C186.15 79.78 170.79 64.56 171.17 46.81C170.79 29.07 186.27 14 204.52 14.35ZM204.52 29.82C195.08 29.82 188.41 37 188.41 46.94C188.41 56.63 195.08 63.8 204.52 63.8C213.71 63.8 220.63 56.63 220.63 46.94C220.63 37.25 213.71 29.82 204.52 29.82Z" fill="#191A1A"/>
<path d="M281 14.35C299.25 14.09 314.85 29.07 314.47 46.81C314.85 64.56 299.12 79.81 280.87 79.41C262.63 79.78 247.27 64.56 247.65 46.81C247.3 29.07 262.78 14 281 14.35ZM281 29.82C271.56 29.82 264.89 37 264.89 46.94C264.89 56.63 271.56 63.8 281 63.8C290.18 63.8 297.11 56.63 297.11 46.94C297.11 37.25 290.21 29.82 281 29.82Z" fill="#191A1A"/>
<path d="M367.73 78C363.898 78.9911 359.958 79.505 356 79.53C340.27 79.53 331.08 71.73 331.08 56.13V30.08H321.3V15.73H331.11V0H348.11V15.73H365.73V30.08H348.1V54.61C348.1 61.61 351.62 64.3 359.68 64.3C360.68 64.3 363.33 64.18 367.73 63.8V78Z" fill="#191A1A"/>
<path d="M440.46 15.73L410.64 83.43C404.98 96.43 397.43 102.18 385.85 102.18C382.133 102.162 378.435 101.654 374.85 100.67V86.45C378.75 86.83 381.14 86.96 382.15 86.96C388.15 86.96 392.22 85.07 395.15 78.52L397.04 74.25L373.14 15.73H391.14L406.36 56.63L422.6 15.73H440.46Z" fill="#191A1A"/>
</g>
<defs>
<clipPath id="clip0_1_26">
<rect width="440.46" height="102.18" fill="white"/>
</clipPath>
</defs>
</svg>
