<svg width="104" height="24" viewBox="0 0 104 24" fill="none" xmlns="http://www.w3.org/2000/svg">
<g clip-path="url(#clip0_88_389)">
<path d="M22.7735 13.7592C22.7735 15.2038 22.2398 16.3429 21.1443 17.1791C20.0487 18.0153 18.7123 18.4193 17.0547 18.4193C14.4763 18.4193 12.3111 17.3553 10.9771 15.5866L12.9864 13.1697C14.2591 14.4968 15.6545 15.145 17.1067 15.145C18.1739 15.145 18.9744 14.7316 18.9744 13.9354C18.9744 13.3177 18.5588 13.0804 17.4608 12.6107L15.8907 11.9601C14.6227 11.448 13.6617 10.9078 13.0006 10.2572H7.29838C6.56777 10.2566 5.86726 9.96758 5.35065 9.45367C4.83403 8.93976 4.54352 8.24292 4.54289 7.51615H11.8956C11.89 6.96124 11.991 6.41038 12.1931 5.89313H2.7484C2.0178 5.89064 1.31804 5.59986 0.802747 5.08463C0.287457 4.5694 -0.00125125 3.87182 4.07662e-06 3.14503H17.2908C19.4844 3.14503 21.234 3.88256 22.5681 5.32707L20.5422 7.77451C19.5623 6.86083 18.4667 6.38872 17.2507 6.38872C16.2732 6.38872 15.6805 6.74104 15.6805 7.41984C15.6805 7.97886 16.0654 8.24662 17.2224 8.71873L18.6391 9.30593C21.5008 10.4568 22.7735 11.6077 22.7735 13.7592Z" fill="#EEF511"/>
<path d="M32.1851 3.37053C35.0681 3.37053 37.297 4.72813 38.5744 6.97593L35.7812 9.13213C34.8603 7.80271 33.7907 7.00412 32.2394 7.00412C29.9821 7.00412 28.3789 8.71874 28.3789 10.9971C28.3789 13.3318 29.9821 15.0182 32.2394 15.0182C33.7553 15.0182 34.8249 14.2502 35.7812 12.9184L38.5744 15.0464C37.297 17.2942 35.0327 18.6823 32.1851 18.6823C27.8783 18.7716 24.2516 15.2249 24.313 10.9971C24.32 6.71052 27.8169 3.37053 32.1851 3.37053Z" fill="#EEF511"/>
<path d="M48.2906 3.37053C52.5974 3.30946 56.2832 6.82796 56.1934 10.9947C56.2832 15.1638 52.5691 18.7457 48.2599 18.6518C43.9508 18.7387 40.3264 15.1638 40.4161 10.9947C40.3264 6.82796 43.9815 3.28832 48.2906 3.37053ZM48.2906 7.00412C46.0617 7.00412 44.4868 8.69055 44.4868 11.0253C44.4868 13.3012 46.0617 14.9853 48.2906 14.9853C50.4582 14.9853 52.0945 13.3012 52.0945 11.0253C52.0945 8.74927 50.4582 7.00412 48.2906 7.00412Z" fill="#EEF511"/>
<path d="M66.3488 3.37053C70.6556 3.30946 74.3414 6.82796 74.2516 10.9947C74.3414 15.1638 70.6273 18.7457 66.3181 18.6518C62.009 18.7387 58.3846 15.1638 58.4743 10.9947C58.3917 6.82796 62.0468 3.28832 66.3488 3.37053ZM66.3488 7.00412C64.1199 7.00412 62.545 8.69055 62.545 11.0253C62.545 13.3012 64.1199 14.9853 66.3488 14.9853C68.5164 14.9853 70.1503 13.3012 70.1503 11.0253C70.1503 8.74927 68.5235 7.00412 66.3488 7.00412Z" fill="#EEF511"/>
<path d="M86.8272 18.3206C85.9224 18.5534 84.9921 18.6741 84.0576 18.68C80.3434 18.68 78.1735 16.8479 78.1735 13.1838V7.06518H75.8549V3.69466H78.1735V0H82.1875V3.69466H86.3479V7.06518H82.1922V12.8268C82.1922 14.4709 83.0234 15.1028 84.9265 15.1028C85.1626 15.1028 85.7859 15.0746 86.8272 14.9853V18.3206Z" fill="#EEF511"/>
<path d="M104 3.69466L96.959 19.596C95.6226 22.6494 93.8399 24 91.1057 24C90.228 23.9958 89.3547 23.8766 88.5084 23.6453V20.3053C89.4292 20.3946 89.9935 20.4251 90.232 20.4251C91.6487 20.4251 92.6097 19.9812 93.3015 18.4427L93.7478 17.4398L88.1046 3.69466H92.3547L95.9508 13.3012L99.7829 3.69466H104Z" fill="#EEF511"/>
</g>
<defs>
<clipPath id="clip0_88_389">
<rect width="104" height="24" fill="white"/>
</clipPath>
</defs>
</svg>
