<svg width="42" height="47" viewBox="0 0 42 47" fill="none" xmlns="http://www.w3.org/2000/svg">
<g filter="url(#filter0_d_154_17706)">
<path d="M27.8957 21.9639C28.6415 20.7311 29.0703 19.2878 29.0703 17.7451C29.0703 13.213 25.3697 9.53906 20.8047 9.53906C16.2397 9.53906 12.5391 13.213 12.5391 17.7451C12.5391 19.214 12.9278 20.5928 13.6088 21.7855C14.0516 22.7888 14.6184 23.7393 15.2997 24.614L20.6091 31.4301C20.6408 31.4708 20.7026 31.4713 20.7349 31.4311L26.2591 24.5757C26.9098 23.7682 27.4581 22.891 27.8957 21.9639Z" fill="#EEF511"/>
</g>
<path fill-rule="evenodd" clip-rule="evenodd" d="M15.2997 24.614C14.6184 23.7393 14.0516 22.7888 13.6088 21.7855C12.9278 20.5928 12.5391 19.214 12.5391 17.7451C12.5391 13.213 16.2397 9.53906 20.8047 9.53906C25.3697 9.53906 29.0703 13.213 29.0703 17.7451C29.0703 19.2878 28.6415 20.7311 27.8957 21.9639C27.4581 22.891 26.9098 23.7682 26.2591 24.5757L20.9493 31.1651L20.7349 31.4311C20.7026 31.4713 20.6408 31.4708 20.6091 31.4301L20.3991 31.1605L15.2997 24.614ZM28.3714 22.219C29.1576 20.9098 29.6094 19.3791 29.6094 17.7451C29.6094 12.9116 25.6637 9 20.8047 9C15.9457 9 12 12.9116 12 17.7451C12 19.3004 12.4093 20.7622 13.1268 22.0285C13.5858 23.0628 14.1715 24.0429 14.8745 24.9453L20.1838 31.7613C20.4292 32.0763 20.9043 32.0801 21.1547 31.7693L26.6789 24.9139C27.3506 24.0804 27.9175 23.1753 28.3714 22.219Z" fill="#3B3D10"/>
<path d="M24 20.1695C24 20.7369 23.7891 21.1844 23.3561 21.5128C22.9232 21.8413 22.395 22 21.74 22C20.721 22 19.8653 21.582 19.3381 20.8873L20.1322 19.9379C20.6351 20.4592 21.1866 20.7138 21.7605 20.7138C22.1823 20.7138 22.4986 20.5514 22.4986 20.2387C22.4986 19.996 22.3344 19.9028 21.9005 19.7183L21.2799 19.4627C20.7789 19.2616 20.3991 19.0494 20.1378 18.7938H17.8843C17.5956 18.7935 17.3187 18.68 17.1146 18.4781C16.9104 18.2763 16.7956 18.0025 16.7953 17.7171H19.7011C19.6989 17.4991 19.7388 17.2827 19.8187 17.0795H16.0862C15.7974 17.0785 15.5209 16.9643 15.3172 16.7619C15.1136 16.5595 14.9995 16.2855 15 16H21.8333C22.7002 16 23.3916 16.2897 23.9188 16.8571L23.1182 17.8185C22.7309 17.4596 22.298 17.2742 21.8174 17.2742C21.4311 17.2742 21.1969 17.4126 21.1969 17.6792C21.1969 17.8988 21.349 18.004 21.8062 18.1895L22.3661 18.4201C23.497 18.8722 24 19.3243 24 20.1695Z" fill="#3B3D10"/>
<defs>
<filter id="filter0_d_154_17706" x="0.539062" y="0.539062" width="40.5312" height="45.9219" filterUnits="userSpaceOnUse" color-interpolation-filters="sRGB">
<feFlood flood-opacity="0" result="BackgroundImageFix"/>
<feColorMatrix in="SourceAlpha" type="matrix" values="0 0 0 0 0 0 0 0 0 0 0 0 0 0 0 0 0 0 127 0" result="hardAlpha"/>
<feOffset dy="3"/>
<feGaussianBlur stdDeviation="6"/>
<feComposite in2="hardAlpha" operator="out"/>
<feColorMatrix type="matrix" values="0 0 0 0 0.969298 0 0 0 0 1 0 0 0 0 0 0 0 0 0.13 0"/>
<feBlend mode="normal" in2="BackgroundImageFix" result="effect1_dropShadow_154_17706"/>
<feBlend mode="normal" in="SourceGraphic" in2="effect1_dropShadow_154_17706" result="shape"/>
</filter>
</defs>
</svg>
