<svg viewBox="0 0 18 23" fill="none" xmlns="http://www.w3.org/2000/svg">
<path d="M15.8957 12.9639C16.6415 11.7311 17.0703 10.2878 17.0703 8.74508C17.0703 4.21302 13.3697 0.539062 8.80469 0.539062C4.23971 0.539062 0.539062 4.21302 0.539062 8.74508C0.539062 10.214 0.927828 11.5928 1.60878 12.7855C2.05162 13.7888 2.61836 14.7393 3.29975 15.614L8.60912 22.4301C8.64083 22.4708 8.70256 22.4713 8.73494 22.4311L14.2591 15.5757C14.9098 14.7682 15.4581 13.891 15.8957 12.9639Z" fill="#EEF511"/>
<path fill-rule="evenodd" clip-rule="evenodd" d="M3.29975 15.614C2.61836 14.7393 2.05162 13.7888 1.60878 12.7855C0.927828 11.5928 0.539062 10.214 0.539062 8.74508C0.539062 4.21302 4.23971 0.539062 8.80469 0.539062C13.3697 0.539062 17.0703 4.21302 17.0703 8.74508C17.0703 10.2878 16.6415 11.7311 15.8957 12.9639C15.4581 13.891 14.9098 14.7682 14.2591 15.5757L8.94931 22.1651L8.73494 22.4311C8.70256 22.4713 8.64083 22.4708 8.60912 22.4301L8.39914 22.1605L3.29975 15.614ZM16.3714 13.219C17.1576 11.9098 17.6094 10.3791 17.6094 8.74508C17.6094 3.91163 13.6637 0 8.80469 0C3.94568 0 0 3.91163 0 8.74508C0 10.3004 0.409257 11.7622 1.12681 13.0285C1.58581 14.0628 2.17152 15.0429 2.87448 15.9453L8.18385 22.7613C8.42917 23.0763 8.90429 23.0801 9.15469 22.7693L14.6789 15.9139C15.3506 15.0804 15.9175 14.1753 16.3714 13.219Z" fill="#3B3D10"/>
<path d="M12 11.1695C12 11.7369 11.7891 12.1844 11.3561 12.5128C10.9232 12.8413 10.395 13 9.73997 13C8.721 13 7.86532 12.582 7.3381 11.8873L8.13219 10.9379C8.63515 11.4592 9.18663 11.7138 9.7605 11.7138C10.1823 11.7138 10.4986 11.5514 10.4986 11.2387C10.4986 10.996 10.3344 10.9028 9.90047 10.7183L9.27994 10.4627C8.77885 10.2616 8.39907 10.0494 8.13779 9.79379H5.88429C5.59556 9.79354 5.31872 9.68002 5.11456 9.47815C4.91039 9.27628 4.79558 9.00255 4.79534 8.71705H7.70109C7.69891 8.49908 7.73881 8.28269 7.81866 8.0795H4.08616C3.79743 8.07852 3.52088 7.9643 3.31724 7.76191C3.1136 7.55952 2.99951 7.28549 3 7H9.83328C10.7002 7 11.3916 7.28971 11.9188 7.85714L11.1182 8.81855C10.7309 8.45963 10.298 8.27418 9.81742 8.27418C9.4311 8.27418 9.19689 8.41258 9.19689 8.67923C9.19689 8.89882 9.34899 9.004 9.80622 9.18945L10.3661 9.42011C11.497 9.87221 12 10.3243 12 11.1695Z" fill="#3B3D10"/>
</svg>
