<svg width="20" height="19" viewBox="0 0 20 19" fill="none" xmlns="http://www.w3.org/2000/svg">
<path d="M0 1.6086C0 1.18962 0.447715 0.849976 1 0.849976H19C19.5523 0.849976 20 1.18962 20 1.6086V2.09135C20 2.51033 19.5523 2.84998 19 2.84998H1C0.447716 2.84998 0 2.51033 0 2.09135V1.6086Z" fill="#F3F3F3"/>
<path d="M0 9.51772C0 9.09874 0.447715 8.75909 1 8.75909H15.3636C15.9159 8.75909 16.3636 9.09874 16.3636 9.51771V10.0005C16.3636 10.4194 15.9159 10.7591 15.3636 10.7591H1C0.447716 10.7591 0 10.4194 0 10.0005V9.51772Z" fill="#F3F3F3"/>
<path d="M0 17.4268C0 17.0078 0.447715 16.6682 1 16.6682H7.18182C7.7341 16.6682 8.18182 17.0078 8.18182 17.4268V17.9095C8.18182 18.3285 7.7341 18.6682 7.18182 18.6682H1C0.447715 18.6682 0 18.3285 0 17.9095V17.4268Z" fill="#F3F3F3"/>
</svg>
