<svg width="134" height="123" viewBox="0 0 134 123" fill="none" xmlns="http://www.w3.org/2000/svg">
<path fill-rule="evenodd" clip-rule="evenodd" d="M30.4796 48.2724C28.6144 46.023 24.9575 47.3419 24.9575 50.264V102.05H18.7172V50.264C18.7172 41.4976 29.688 37.541 35.2834 44.2894L86.7415 106.351C88.6067 108.601 92.2636 107.282 92.2636 104.36V61.4881H98.5039V104.36C98.5039 113.126 87.5331 117.082 81.9377 110.334L30.4796 48.2724Z" fill="#EEF511"/>
<circle cx="22.2831" cy="101.159" r="21.841" fill="#3B3D10"/>
<circle cx="21.8373" cy="101.605" r="4.45736" fill="#EEF511"/>
<g filter="url(#filter0_d_538_96)">
<path d="M117.397 48.1283C119.706 44.3123 121.033 39.8447 121.033 35.0694C121.033 21.0409 109.578 9.66858 95.4477 9.66858C81.3174 9.66858 69.8624 21.0409 69.8624 35.0694C69.8624 39.6163 71.0658 43.8841 73.1736 47.5762C74.5444 50.6816 76.2987 53.6238 78.4078 56.3314L94.8424 77.4297C94.9405 77.5558 95.1316 77.5573 95.2318 77.4329L112.331 56.2127C114.345 53.7133 116.043 50.998 117.397 48.1283Z" fill="#EEF511"/>
</g>
<path fill-rule="evenodd" clip-rule="evenodd" d="M78.4078 56.3315C76.2987 53.6238 74.5444 50.6817 73.1737 47.5762C71.0658 43.8841 69.8625 39.6163 69.8625 35.0694C69.8625 21.0409 81.3174 9.66861 95.4478 9.66861C109.578 9.66861 121.033 21.0409 121.033 35.0694C121.033 39.8447 119.706 44.3123 117.397 48.1283C116.043 50.998 114.345 53.7133 112.331 56.2127L95.8954 76.6095L95.2319 77.433C95.1316 77.5574 94.9405 77.5558 94.8424 77.4298L94.1924 76.5954L78.4078 56.3315ZM118.87 48.9179C121.303 44.8655 122.702 40.1274 122.702 35.0694C122.702 20.108 110.488 8 95.4478 8C80.4072 8 68.1938 20.108 68.1938 35.0694C68.1938 39.8837 69.4607 44.4086 71.6818 48.3282C73.1026 51.5298 74.9156 54.5635 77.0915 57.3569L93.526 78.4552C94.2854 79.43 95.7561 79.4418 96.5312 78.4799L113.631 57.2597C115.71 54.6795 117.465 51.8782 118.87 48.9179Z" fill="#3B3D10"/>
<path d="M105.338 42.5738C105.338 44.3302 104.686 45.7154 103.345 46.7321C102.005 47.7488 100.37 48.24 98.3427 48.24C95.1886 48.24 92.54 46.9463 90.908 44.7958L93.366 41.857C94.9229 43.4706 96.6299 44.2588 98.4063 44.2588C99.7118 44.2588 100.691 43.7562 100.691 42.788C100.691 42.0369 100.183 41.7484 98.8395 41.1772L96.9188 40.3861C95.3677 39.7635 94.1921 39.1067 93.3834 38.3156H86.4079C85.5142 38.3148 84.6573 37.9634 84.0253 37.3386C83.3933 36.7137 83.0379 35.8664 83.0372 34.9827H92.0316C92.0248 34.3079 92.1484 33.6381 92.3955 33.0092H80.842C79.9483 33.0062 79.0923 32.6526 78.4619 32.0261C77.8316 31.3996 77.4784 30.5514 77.4799 29.6677H98.6316C101.315 29.6677 103.455 30.5645 105.087 32.3209L102.609 35.2968C101.41 34.1859 100.07 33.6118 98.5825 33.6118C97.3867 33.6118 96.6617 34.0402 96.6617 34.8656C96.6617 35.5453 97.1325 35.8709 98.5478 36.4449L100.281 37.1589C103.782 38.5583 105.338 39.9578 105.338 42.5738Z" fill="#3B3D10"/>
<defs>
<filter id="filter0_d_538_96" x="57.8624" y="0.668579" width="75.1706" height="91.8567" filterUnits="userSpaceOnUse" color-interpolation-filters="sRGB">
<feFlood flood-opacity="0" result="BackgroundImageFix"/>
<feColorMatrix in="SourceAlpha" type="matrix" values="0 0 0 0 0 0 0 0 0 0 0 0 0 0 0 0 0 0 127 0" result="hardAlpha"/>
<feOffset dy="3"/>
<feGaussianBlur stdDeviation="6"/>
<feComposite in2="hardAlpha" operator="out"/>
<feColorMatrix type="matrix" values="0 0 0 0 0.969298 0 0 0 0 1 0 0 0 0 0 0 0 0 0.13 0"/>
<feBlend mode="normal" in2="BackgroundImageFix" result="effect1_dropShadow_538_96"/>
<feBlend mode="normal" in="SourceGraphic" in2="effect1_dropShadow_538_96" result="shape"/>
</filter>
</defs>
</svg>
