<svg width="112" height="20" viewBox="0 0 112 20" fill="none" xmlns="http://www.w3.org/2000/svg">
<path d="M15.5876 12.8184C15.5876 13.8558 15.2224 14.6739 14.4725 15.2744C13.7226 15.8749 12.8079 16.165 11.6734 16.165C9.90853 16.165 8.42653 15.4009 7.51342 14.1307L8.88875 12.3951C9.75985 13.3481 10.715 13.8136 11.7089 13.8136C12.4394 13.8136 12.9873 13.5168 12.9873 12.9449C12.9873 12.5013 12.7028 12.331 11.9513 11.9936L10.8766 11.5264C10.0087 11.1587 9.35096 10.7707 8.89845 10.3035H4.99548C4.4954 10.303 4.01593 10.0955 3.66233 9.72642C3.30872 9.35736 3.10988 8.85694 3.10945 8.335H8.14209C8.13831 7.9365 8.20743 7.54091 8.34573 7.16944H1.88118C1.38111 7.16766 0.90215 6.95884 0.549452 6.58883C0.196754 6.21882 -0.000856436 5.71786 2.7903e-06 5.19592H11.835C13.3364 5.19592 14.5339 5.72557 15.447 6.76293L14.0604 8.52055C13.3897 7.86439 12.6398 7.52535 11.8075 7.52535C11.1384 7.52535 10.7328 7.77837 10.7328 8.26585C10.7328 8.6673 10.9962 8.85959 11.7881 9.19863L12.7578 9.62032C14.7165 10.4468 15.5876 11.2734 15.5876 12.8184Z" fill="#1C1C1C"/>
<path d="M23.6388 13.3336C22.9299 13.3955 22.5045 13.4162 22.3425 13.4162C21.0462 13.4162 20.4791 12.9827 20.4791 11.8269V7.80201H23.3147V5.44902H20.4791V2.86899H17.7448V5.44902H16.1649V7.80201H17.7448V12.0745C17.7448 14.6339 19.2233 15.9136 21.7551 15.9136C22.3628 15.9136 22.9906 15.8311 23.6388 15.6659V13.3336ZM34.0296 9.59771C34.0296 6.77 32.3484 5.22198 29.7356 5.22198C27.9735 5.22198 26.5152 5.92375 25.3607 7.32729L26.7785 9.04042C27.6697 8.07033 28.3989 7.63689 29.4318 7.63689C30.6471 7.63689 31.2952 8.29738 31.2952 9.43259V9.88667H28.7837C26.4545 9.88667 24.9961 11.0219 24.9961 12.8589C24.9961 14.6546 26.3329 15.9136 28.4596 15.9136C29.7356 15.9136 30.7889 15.4389 31.518 14.6752V15.6659H34.0296V9.59771ZM31.2952 11.8475C31.2952 13.024 30.3838 13.8702 29.1888 13.8702C28.3178 13.8702 27.7507 13.4368 27.7507 12.7557C27.7507 12.0745 28.2571 11.7237 29.1483 11.7237H31.2952V11.8475ZM42.8184 5.44902C42.5551 5.36646 42.2716 5.32518 41.9272 5.32518C40.8132 5.32518 39.841 5.82055 39.1726 6.6668V5.44902H36.6611V15.6659H39.3954V10.5678C39.3954 8.81338 40.4487 7.90521 42.0893 7.90521H42.8184V5.44902ZM50.9544 13.3336C50.2455 13.3955 49.8202 13.4162 49.6581 13.4162C48.3619 13.4162 47.7947 12.9827 47.7947 11.8269V7.80201H50.6303V5.44902H47.7947V2.86899H45.0604V5.44902H43.4806V7.80201H45.0604V12.0745C45.0604 14.6339 46.539 15.9136 49.0708 15.9136C49.6784 15.9136 50.3063 15.8311 50.9544 15.6659V13.3336ZM64.7737 5.44902C64.5104 5.36646 64.2269 5.32518 63.8825 5.32518C62.7686 5.32518 61.7964 5.82055 61.128 6.6668V5.44902H58.6164V15.6659H61.3508V10.5678C61.3508 8.81338 62.404 7.90521 64.0446 7.90521H64.7737V5.44902ZM66.4689 15.6659H69.2032V5.44902H66.4689V15.6659ZM66.084 1.73378C66.084 2.70387 66.8537 3.44692 67.8259 3.44692C68.7981 3.44692 69.588 2.70387 69.588 1.73378C69.588 0.74305 68.7981 0 67.8259 0C66.8537 0 66.084 0.74305 66.084 1.73378ZM79.1999 0.185762V6.43976C78.4707 5.63479 77.4782 5.22198 76.2022 5.22198C73.4071 5.22198 71.3412 7.49241 71.3412 10.5678C71.3412 13.6432 73.4071 15.9136 76.2022 15.9136C77.5795 15.9136 78.7543 15.377 79.4227 14.4069V15.6659H81.9342V0.185762H79.1999ZM79.2404 10.5678C79.2404 12.4048 78.0859 13.3749 76.7086 13.3749C75.23 13.3749 74.116 12.2603 74.116 10.5472C74.116 8.8753 75.2503 7.74009 76.7086 7.74009C78.0859 7.74009 79.2404 8.75146 79.2404 10.5678ZM84.6462 15.6659H87.3806V5.44902H84.6462V15.6659ZM84.2614 1.73378C84.2614 2.70387 85.0311 3.44692 86.0033 3.44692C86.9755 3.44692 87.7654 2.70387 87.7654 1.73378C87.7654 0.74305 86.9755 0 86.0033 0C85.0311 0 84.2614 0.74305 84.2614 1.73378ZM99.3014 9.32939C99.3014 6.85256 97.8633 5.22198 95.5341 5.22198C94.3391 5.22198 93.3061 5.65543 92.5972 6.37783V5.44902H90.0857V15.6659H92.82V9.70091C92.82 8.52442 93.6099 7.71945 94.7239 7.71945C95.8379 7.71945 96.5873 8.52442 96.5873 9.70091V15.6659H99.3014V9.32939ZM109.488 5.44902V6.72872C108.78 5.75863 107.645 5.22198 106.207 5.22198C103.473 5.22198 101.407 7.24472 101.407 10.2788C101.407 13.2717 103.432 15.3563 106.207 15.3563C107.483 15.3563 108.537 14.9435 109.266 14.1386V14.6958C109.266 16.2851 108.212 17.1108 106.592 17.1108C105.377 17.1108 104.445 16.636 103.331 15.7898L101.893 17.73C103.291 18.989 104.931 19.6289 106.815 19.6289C109.954 19.6289 112 17.8538 112 14.5307V5.44902H109.488ZM109.306 10.2376C109.306 11.992 108.152 13.0033 106.774 13.0033C105.316 13.0033 104.182 11.9094 104.182 10.2582C104.182 8.60698 105.296 7.59561 106.774 7.59561C108.172 7.59561 109.306 8.48314 109.306 10.2376Z" fill="#1C1C1C"/>
</svg>
